<svg width="87" height="40" viewBox="0 0 87 40" fill="none" xmlns="http://www.w3.org/2000/svg">
<g clip-path="url(#clip0_9_130)">
<path d="M4.44444 5.55566C3.2657 5.55566 2.13524 6.02392 1.30175 6.85741C0.468253 7.69091 0 8.82137 0 10.0001L0 30.0001C0 31.1788 0.468253 32.3093 1.30175 33.1428C2.13524 33.9763 3.2657 34.4446 4.44444 34.4446H13.3333V5.55566H4.44444Z" fill="#009A49"/>
<path d="M13.3333 5.55566H26.6666V34.4446H13.3333V5.55566Z" fill="#EEEEEE"/>
<path d="M35.5556 5.55566H26.6667V34.4446H35.5556C36.7343 34.4446 37.8648 33.9763 38.6983 33.1428C39.5318 32.3093 40 31.1788 40 30.0001V10.0001C40 8.82137 39.5318 7.69091 38.6983 6.85741C37.8648 6.02392 36.7343 5.55566 35.5556 5.55566Z" fill="#009A49"/>
</g>
<path d="M56 17L62 23L68 17" stroke="black" stroke-opacity="0.25" stroke-width="2" stroke-linecap="round" stroke-linejoin="round"/>
<line x1="85.5" y1="1.5" x2="85.5" y2="38.5" stroke="black" stroke-opacity="0.1" stroke-width="3" stroke-linecap="round"/>
<defs>
<clipPath id="clip0_9_130">
<rect width="40" height="40" fill="white"/>
</clipPath>
</defs>
</svg>
